# xmcd CD database file
#
# Track frame offsets:
#	150
#	13580
#	27457
#	45332
#	57670
#	66917
#	79192
#	100537
#	111937
#	129835
#	142887
#	157905
#
# Disc length: 2280 seconds
#
# Revision: 0
# Processed by: cddbd v1.4PL0 Copyright (c) Steve Scherf et al.
# Submitted via: CDex 1.40Release
#
DISCID=9308e60c
DTITLE=Dave MacKenzie - All New Slender Man Blues
DYEAR=1995
DGENRE=Blues
TTITLE0=Start the Party
TTITLE1=Pay Your Own Way
TTITLE2=King of the Blues (I Ain't Even Tryin')
TTITLE3=Don't Say Nothin' Bad
TTITLE4=I Don't Like Little Kids (for Marcia)
TTITLE5=Honeymoon Mambo
TTITLE6=Slender Man Blues
TTITLE7=Falling Off the Wagon
TTITLE8=Blues Give a Lesson (for Gabriel)
TTITLE9=What She Likes to Do
TTITLE10=Bad Loser
TTITLE11=Sure 'Nuff Said
EXTD=YEAR: 1995 ID3G: 0
EXTT0=
EXTT1=
EXTT2=
EXTT3=
EXTT4=
EXTT5=
EXTT6=
EXTT7=
EXTT8=
EXTT9=
EXTT10=
EXTT11=
PLAYORDER=
